# xmcd
#
# Track frame offsets: 
#        150
#        13428
#        25964
#        39323
#        51846
#        66150
#        77789
#        90636
#        105994
#        120482
#        133840
#        148116
#        163410
#        177392
#        190452
#        204890
#        219100
#        232310
#        246387
#        261576
#        274208
#        287531
#        300263
#        315200
#
# Disc length: 4399 seconds
#
# Revision: 1
# Processed by: cddbd v1.5.1PL0 Copyright (c) Steve Scherf et al.
# Submitted via: ExactAudioCopy v0.95a5
#
DISCID=62112d18
DTITLE=Various Artist - Let Me Squeeze Your Lemon: The Ultimate Rude Blues Co
DTITLE=llection [CD1]
DYEAR=2003
DGENRE=Blues
TTITLE0=Bobo Thomas - Catfish Blues
TTITLE1=Bullmoose Jackson - I Want A Bowlegged Woman
TTITLE2=The Honeydripper - Hard Lead Pencil
TTITLE3=Jimmie Gordon - Little Red Dress (Drawers)
TTITLE4=Barrelhouse Annie - Love Operation
TTITLE5=Alex Moore - Blue Bloomer Blues
TTITLE6=Charlie Pickett - Let Me Squeeze Your Lemon
TTITLE7=Charlie Lincoln - Doodle Hole Blues
TTITLE8=Georgia Pine Boy - One More Greasing
TTITLE9=Bessie Smith - Kitchen Man
TTITLE10=Buddy Moss - You Got To Give Me Some Of It
TTITLE11=Carl Rafferty - Dressed With The Drawers
TTITLE12=Clara Smith - Ain't Got Nobody To Grind My Coffee
TTITLE13=Dan Pickett - Lemon Man
TTITLE14=Mississippi Sheiks - Bed Spring Poker
TTITLE15=Kansas City Kitty and Georgia Tom - Show Me What You've Got
TTITLE16=Big Bill Broonzy - I Want My Hands On It
TTITLE17=Blind Boy Fuller - I'm A Rattlesnakin' Daddy
TTITLE18=Champion Jack Dupree - I Think You Need A Shot
TTITLE19=Memphis Minnie - Bumble Bee
TTITLE20=Lonnie Johnson - The Best Jockey In Town
TTITLE21=Blind Squire Turner - Don't Like The Way You Do
TTITLE22=John Lee Hooker - My Daddy Was A Jockey
TTITLE23=Leadbelly - Pig Meat Papa
EXTD=
EXTT0=
EXTT1=
EXTT2=
EXTT3=
EXTT4=
EXTT5=
EXTT6=
EXTT7=
EXTT8=
EXTT9=
EXTT10=
EXTT11=
EXTT12=
EXTT13=
EXTT14=
EXTT15=
EXTT16=
EXTT17=
EXTT18=
EXTT19=
EXTT20=
EXTT21=
EXTT22=
EXTT23=
PLAYORDER=
